<svg width="60" height="61" viewBox="0 0 60 61" fill="none" xmlns="http://www.w3.org/2000/svg">
<g id="boia">
<path fill-rule="evenodd" clip-rule="evenodd" d="M30.7412 13.7432C28.03 13.5352 25.221 14.1241 22.8119 15.3476C19.9586 16.797 17.3181 19.037 15.6908 21.8752C14.0578 24.7238 13.2716 28.1861 13.649 31.4719C14.1002 35.4001 15.7425 39.5293 18.7537 42.3047C21.9924 45.2898 26.6537 47.2349 31.1411 46.9273C35.6956 46.6152 40.0608 43.9826 42.9244 40.5817C45.3523 37.6985 46.4236 33.7773 46.4467 30.1384C46.4617 26.0219 45.5205 21.3024 42.4693 18.1413C39.4317 14.9944 34.7626 14.0557 30.7412 13.7475V13.7432ZM30.5711 15.9064C34.3652 16.1973 38.5027 17.1612 40.8953 19.6401C43.3313 22.1636 44.2824 26.3603 44.2687 30.1257C44.2482 33.3406 43.2526 36.819 41.2569 39.189C38.7479 42.1688 34.7791 44.5043 30.9879 44.7642C27.2524 45.0201 23.0423 43.3057 20.234 40.7172C17.7348 38.4137 16.2117 34.7239 15.8099 31.2264C15.4921 28.4586 16.1786 25.39 17.5796 22.9462C18.944 20.5662 21.2747 18.5602 23.7988 17.278C25.8441 16.2393 28.2959 15.7319 30.5711 15.9064Z" fill="#1188EE"/>
<path fill-rule="evenodd" clip-rule="evenodd" d="M32.0769 0.057094C23.9609 -0.498844 15.3876 3.05611 9.48012 8.49824C4.03715 13.5125 0.99586 21.0864 0.168286 28.2885C-0.515978 34.2432 0.918315 40.59 3.89047 45.7716C6.83835 50.9105 11.6725 55.0178 16.899 57.6711C21.274 59.8921 26.4081 60.9641 31.3197 60.5878C38.7902 60.0156 47.3424 58.2392 52.7765 52.6125C58.2499 46.9456 60.0273 38.2927 59.9997 30.7014C59.9592 24.0408 57.9775 16.8594 53.5975 11.6604C48.3626 5.44672 40.3144 0.626067 32.0769 0.0614595V0.057094ZM31.9281 2.21616C39.4027 2.72853 47.0456 7.25634 51.9257 13.0489C55.8736 17.7348 57.7838 24.4738 57.8217 30.7099C57.8481 37.9501 56.0647 46.08 51.2068 51.1097C46.4179 56.0685 38.3929 57.874 31.1496 58.4289C26.6736 58.7718 21.9013 57.7771 17.8901 55.7408C12.9928 53.2548 8.46834 49.3769 5.78346 44.6964C3.04357 39.9196 1.70881 33.9705 2.33353 28.534C3.11158 21.7628 6.0296 14.6326 10.9605 10.0899C16.4375 5.04443 24.5637 1.71159 31.9281 2.21616Z" fill="#1188EE"/>
<path fill-rule="evenodd" clip-rule="evenodd" d="M17.4392 3.98135L15.559 5.07775L22.6375 17.1339L24.5177 16.0375L17.4392 3.98135Z" fill="#1188EE"/>
<path fill-rule="evenodd" clip-rule="evenodd" d="M43.9071 4.608L36.4202 15.8514L38.2324 17.0494L45.7193 5.80599L43.9071 4.608Z" fill="#1188EE"/>
<path fill-rule="evenodd" clip-rule="evenodd" d="M53.9166 14.4374L43.0265 20.9396L44.1496 22.798L55.0396 16.2958L53.9166 14.4374Z" fill="#1188EE"/>
<path fill-rule="evenodd" clip-rule="evenodd" d="M44.5537 35.7009L43.4392 37.5635L56.235 45.1494L57.3495 43.2868L44.5537 35.7009Z" fill="#1188EE"/>
<path fill-rule="evenodd" clip-rule="evenodd" d="M39.5766 42.6347L37.5262 43.367L42.4267 56.9133L44.4771 56.181L39.5766 42.6347Z" fill="#1188EE"/>
<path fill-rule="evenodd" clip-rule="evenodd" d="M21.4124 43.4053L14.6061 55.0551L16.4863 56.143L23.2926 44.4932L21.4124 43.4053Z" fill="#1188EE"/>
<path fill-rule="evenodd" clip-rule="evenodd" d="M16.3757 36.3654L4.26057 43.1385L5.32405 45.0307L17.4392 38.2576L16.3757 36.3654Z" fill="#1188EE"/>
<path fill-rule="evenodd" clip-rule="evenodd" d="M5.36659 15.0427L4.32863 16.9477L15.627 23.0435L16.665 21.1386L5.36659 15.0427Z" fill="#1188EE"/>
<path fill-rule="evenodd" clip-rule="evenodd" d="M7.06383 18.8823C6.94019 18.8778 6.81866 18.9154 6.71926 18.9887L2.15906 22.2398C2.04171 22.324 1.96278 22.4512 1.93964 22.5933C1.91649 22.7354 1.95103 22.8808 2.03564 22.9975C2.12026 23.1143 2.24802 23.1928 2.39083 23.2158C2.53364 23.2388 2.6798 23.2045 2.79715 23.1203L7.35735 19.8692C7.45146 19.8042 7.52257 19.7114 7.56057 19.6038C7.59857 19.4963 7.60152 19.3795 7.56901 19.2702C7.53649 19.1609 7.47017 19.0647 7.37948 18.995C7.28878 18.9254 7.17833 18.8859 7.06383 18.8823Z" fill="#1188EE"/>
<path fill-rule="evenodd" clip-rule="evenodd" d="M7.79978 20.5754C7.65773 20.573 7.52034 20.6258 7.41693 20.7228L1.35935 26.2768C1.30655 26.3251 1.26384 26.3834 1.23366 26.4482C1.20348 26.513 1.18642 26.583 1.18346 26.6543C1.18049 26.7257 1.19168 26.7968 1.21638 26.8638C1.24108 26.9309 1.27881 26.9925 1.32742 27.0451C1.37602 27.0976 1.43455 27.1402 1.49966 27.1702C1.56477 27.2002 1.63519 27.217 1.70689 27.22C1.77859 27.2229 1.85016 27.2118 1.91753 27.1872C1.9849 27.1626 2.04675 27.1249 2.09953 27.0766L8.15711 21.5226C8.23985 21.45 8.29847 21.3543 8.32518 21.2477C8.3519 21.1412 8.34545 21.0288 8.30671 20.926C8.26796 20.8232 8.19874 20.7345 8.10822 20.6717C8.01769 20.6089 7.91013 20.576 7.79978 20.5754Z" fill="#1188EE"/>
<path fill-rule="evenodd" clip-rule="evenodd" d="M8.64207 22.9463C8.52035 22.9547 8.405 23.0035 8.31452 23.0849L0.487302 29.926C0.430399 29.9718 0.383354 30.0284 0.348976 30.0927C0.314599 30.157 0.293594 30.2276 0.287217 30.3001C0.280841 30.3727 0.289222 30.4457 0.311862 30.515C0.334501 30.5842 0.370935 30.6482 0.418985 30.7031C0.467035 30.758 0.525717 30.8027 0.591525 30.8346C0.657333 30.8664 0.728916 30.8849 0.802 30.8886C0.875084 30.8923 0.948168 30.8813 1.01689 30.8563C1.08561 30.8313 1.14855 30.7926 1.20196 30.7428L9.03343 23.9022C9.12228 23.8286 9.18528 23.7286 9.21332 23.617C9.24136 23.5054 9.23297 23.3878 9.18939 23.2812C9.1458 23.1747 9.06927 23.0847 8.97087 23.0243C8.87247 22.9639 8.75731 22.9372 8.64207 22.9463Z" fill="#1188EE"/>
<path fill-rule="evenodd" clip-rule="evenodd" d="M9.09729 25.5875C8.95584 25.5839 8.81853 25.635 8.71443 25.7304L1.02334 32.639C0.916194 32.7356 0.851974 32.8708 0.844808 33.0144C0.837642 33.1581 0.888117 33.2986 0.98513 33.4052C1.08214 33.5119 1.21775 33.5758 1.36213 33.583C1.50651 33.5902 1.64783 33.5398 1.75502 33.4433L9.44611 26.5347C9.52835 26.4626 9.58678 26.3674 9.61376 26.2617C9.64073 26.1559 9.635 26.0445 9.59731 25.9421C9.55962 25.8396 9.49172 25.751 9.40251 25.6875C9.31329 25.6241 9.20691 25.5898 9.09729 25.5875Z" fill="#1188EE"/>
<path fill-rule="evenodd" clip-rule="evenodd" d="M9.87142 28.2291C9.75023 28.2364 9.63494 28.2837 9.54387 28.3635L1.24021 35.4753C1.18441 35.5213 1.13838 35.5776 1.10481 35.6415C1.07123 35.7053 1.05079 35.7753 1.04468 35.8471C1.03857 35.9189 1.04692 35.9912 1.06922 36.0598C1.09153 36.1283 1.12735 36.1917 1.1746 36.2463C1.22184 36.3009 1.27955 36.3456 1.34436 36.3778C1.40917 36.4099 1.47977 36.429 1.55203 36.4336C1.62429 36.4383 1.69676 36.4286 1.7652 36.405C1.83364 36.3815 1.89668 36.3447 1.95062 36.2966L10.2543 29.1848C10.3423 29.1116 10.4048 29.0126 10.433 28.902C10.4611 28.7913 10.4534 28.6747 10.411 28.5686C10.3685 28.4625 10.2935 28.3723 10.1966 28.3112C10.0997 28.25 9.98592 28.2221 9.87142 28.2291Z" fill="#1188EE"/>
<path fill-rule="evenodd" clip-rule="evenodd" d="M10.8243 31.2772C10.7016 31.2834 10.5847 31.3308 10.4925 31.4116L2.12079 38.5911C2.01138 38.6854 1.9441 38.8191 1.93374 38.9628C1.92339 39.1065 1.9708 39.2481 2.06556 39.357C2.16032 39.4659 2.29466 39.533 2.43904 39.5433C2.58342 39.5536 2.72601 39.5066 2.83545 39.4123L11.2072 32.2328C11.2952 32.1596 11.3577 32.0604 11.3859 31.9497C11.414 31.839 11.4063 31.7224 11.3639 31.6163C11.3214 31.5103 11.2464 31.4203 11.1495 31.3592C11.0526 31.2981 10.9388 31.2701 10.8243 31.2772Z" fill="#1188EE"/>
<path fill-rule="evenodd" clip-rule="evenodd" d="M11.4455 34.6637C11.3231 34.6694 11.2062 34.7158 11.1137 34.7957L3.15034 41.4334C3.09531 41.479 3.04984 41.5352 3.01653 41.5982C2.98323 41.6613 2.96273 41.7302 2.95621 41.8012C2.9497 41.8721 2.95729 41.9435 2.97855 42.0115C2.99982 42.0795 3.03435 42.1427 3.08016 42.1975C3.12597 42.2523 3.18217 42.2977 3.24555 42.3308C3.30893 42.364 3.37826 42.3842 3.44956 42.3906C3.52086 42.3971 3.59274 42.3896 3.6611 42.3684C3.72946 42.3472 3.79296 42.3129 3.84798 42.2673L11.8113 35.6297C11.9014 35.5583 11.9665 35.4603 11.9971 35.3498C12.0277 35.2392 12.0222 35.1218 11.9816 35.0145C11.9409 34.9073 11.8671 34.8155 11.7708 34.7526C11.6744 34.6897 11.5606 34.6581 11.4455 34.6637Z" fill="#1188EE"/>
</g>
</svg>
