<svg width="56" height="64" viewBox="0 0 56 64" fill="none" xmlns="http://www.w3.org/2000/svg">
<g id="coco">
<path fill-rule="evenodd" clip-rule="evenodd" d="M27.6118 14.2202C24.6055 14.1877 21.5953 14.3979 18.6403 14.889C15.0707 15.4809 11.2538 16.3962 8.11611 18.5931C5.61145 20.3469 3.80516 22.9081 2.4669 25.4847C1.08398 28.1472 0.165944 31.1532 0.0336564 34.1967C-0.155072 38.5046 0.422381 43.1153 2.4669 47.0656C5.6638 53.2425 10.651 59.1929 17.1344 62.1824C21.9813 64.4174 27.7665 64.3821 32.8144 63.2026C38.8392 61.7949 44.7681 58.5848 48.9027 53.9234C52.4904 49.8784 54.3629 44.4652 55.1517 39.2807C55.7896 35.0881 55.5669 30.5079 53.85 26.5049C52.46 23.2642 49.9333 20.5141 47.0608 18.5804C43.8953 16.4498 40.0959 15.6171 36.5578 15.0245C33.6182 14.5321 30.6181 14.2533 27.6118 14.2202ZM27.5863 16.3876C30.4735 16.4201 33.3635 16.6878 36.1962 17.1623C39.6482 17.7405 43.1339 18.554 45.8399 20.3753C48.4054 22.1025 50.659 24.5874 51.8464 27.3558C53.3516 30.8653 53.5901 35.0753 52.9992 38.959C52.2539 43.8576 50.463 48.8917 47.2692 52.4926C43.4932 56.7498 37.9298 59.7827 32.3167 61.0944C27.6267 62.1903 22.2778 62.168 18.049 60.2182C12.1871 57.5152 7.4355 51.9353 4.40243 46.075C2.60015 42.5927 2.03448 38.334 2.21166 34.2898C2.32766 31.6209 3.14691 28.8966 4.40243 26.4795C5.64119 24.0943 7.28573 21.8272 9.37101 20.3668C12.0547 18.4879 15.5462 17.5992 18.9976 17.0268C21.8165 16.5595 24.6991 16.3559 27.5863 16.3876Z" fill="#1188EE"/>
<path fill-rule="evenodd" clip-rule="evenodd" d="M3.6325 25.0232C3.41626 25.0356 3.20866 25.112 3.03624 25.2425C2.86382 25.373 2.73441 25.5515 2.66454 25.7555C2.59467 25.9595 2.58752 26.1798 2.64401 26.3878C2.7005 26.5959 2.81805 26.7826 2.98165 26.9239C2.98165 26.9239 4.00148 27.8303 5.32981 28.8542C6.65814 29.8779 8.25513 31.0301 9.7071 31.5973C15.8585 33.9999 22.6284 34.3007 29.0369 34.2431C42.5945 34.1217 53.0801 28.4521 53.0801 28.4521C53.2095 28.3863 53.3244 28.2954 53.418 28.1848C53.5116 28.0742 53.582 27.9462 53.6251 27.8081C53.6682 27.67 53.6831 27.5247 53.6689 27.3808C53.6547 27.2369 53.6117 27.0973 53.5424 26.9702C53.4731 26.8431 53.379 26.7309 53.2656 26.6405C53.1521 26.5501 53.0217 26.4833 52.8819 26.4439C52.742 26.4045 52.5957 26.3934 52.4515 26.4111C52.3073 26.4288 52.1681 26.475 52.0421 26.5471C52.0421 26.5471 41.9736 31.9591 29.0156 32.0757C22.6933 32.132 16.2026 31.8044 10.5026 29.5781C9.5289 29.1979 7.92975 28.1142 6.66555 27.1398C5.40134 26.1655 4.43224 25.3068 4.43224 25.3068C4.3248 25.2087 4.19865 25.133 4.06127 25.0843C3.92389 25.0356 3.77809 25.0147 3.6325 25.0232Z" fill="#1188EE"/>
<path fill-rule="evenodd" clip-rule="evenodd" d="M53.7691 32.7445C53.4868 32.7557 53.2199 32.8756 53.0247 33.079C53.0247 33.079 52.5337 33.5752 51.8932 34.1584C51.2527 34.7419 50.4326 35.4171 49.9832 35.6739C47.3325 37.1892 44.2865 38.1398 41.2073 38.7345C38.5764 39.243 32.4613 39.1198 32.4613 39.1198C32.3182 39.1158 32.1758 39.1398 32.0421 39.1907C31.9084 39.2415 31.7861 39.3182 31.6822 39.4161C31.5782 39.514 31.4947 39.6313 31.4363 39.7613C31.3779 39.8914 31.3459 40.0315 31.342 40.1738C31.3381 40.3162 31.3624 40.458 31.4135 40.5911C31.4647 40.7241 31.5416 40.8456 31.6401 40.949C31.7385 41.0524 31.8564 41.1355 31.9871 41.1935C32.1178 41.2515 32.2587 41.2833 32.4017 41.2872C32.4017 41.2872 38.3693 41.493 41.6242 40.8638C44.8652 40.2379 48.1359 39.2295 51.0679 37.5535C51.8616 37.0996 52.678 36.3885 53.365 35.7628C54.052 35.1371 54.5774 34.6027 54.5774 34.6027C54.7336 34.4491 54.8396 34.2521 54.8813 34.0375C54.923 33.8229 54.8985 33.6009 54.8111 33.4004C54.7237 33.1999 54.5774 33.0304 54.3915 32.9141C54.2055 32.7978 53.9886 32.7402 53.7692 32.7488L53.7691 32.7445Z" fill="#1188EE"/>
<path fill-rule="evenodd" clip-rule="evenodd" d="M52.8844 42.1169C52.7132 42.1221 52.5456 42.1674 52.3952 42.2492C52.3952 42.2492 46.7102 45.155 43.9724 45.9363C42.1375 46.46 37.6554 46.8464 37.6554 46.8464C37.3671 46.8689 37.0996 47.0042 36.9117 47.2229C36.7238 47.4417 36.631 47.7258 36.6535 48.0127C36.6761 48.2996 36.8122 48.5657 37.032 48.7527C37.2518 48.9397 37.5373 49.0321 37.8255 49.0096C37.8255 49.0096 42.1758 48.7029 44.5723 48.019C47.8715 47.0773 53.4034 44.1711 53.4034 44.1711C53.6255 44.0608 53.8032 43.8786 53.9069 43.6541C54.0105 43.4296 54.0341 43.1764 53.9735 42.9368C53.9129 42.6972 53.7719 42.4854 53.5739 42.3365C53.3758 42.1876 53.1325 42.1094 52.8844 42.1169Z" fill="#1188EE"/>
<path fill-rule="evenodd" clip-rule="evenodd" d="M28.1988 18.868C26.1972 18.8897 23.6362 18.9309 21.1969 19.1136C18.7561 19.2956 16.4678 19.5889 14.816 20.2311C11.6689 21.4553 10.1452 23.7659 10.1452 23.7659C10.0666 23.8862 10.0128 24.021 9.98698 24.1622C9.96112 24.3034 9.9637 24.4482 9.99457 24.5884C10.0254 24.7286 10.084 24.8612 10.1668 24.9787C10.2496 25.0962 10.3551 25.1963 10.477 25.2729C10.477 25.2729 15.3798 28.4 19.8867 29.3452C24.3069 30.2727 31.5879 30.3099 36.0473 29.4124C40.5969 28.4973 45.6612 25.344 45.6612 25.344C45.8079 25.2539 45.9309 25.1307 46.0203 24.984C46.1097 24.8373 46.1628 24.6714 46.1752 24.5003C46.1877 24.3292 46.1591 24.1577 46.092 23.9997C46.0248 23.8418 45.9209 23.7017 45.7888 23.5915C45.7888 23.5915 42.5774 20.8203 39.3654 19.7986C36.2441 18.8059 32.1968 18.8324 28.2031 18.8672L28.1988 18.868ZM28.2202 21.0354C32.1987 21.0008 36.1379 21.0571 38.7019 21.8651C40.5288 22.4462 41.8584 23.5854 42.9005 24.367C41.2469 25.2751 38.4458 26.7192 35.6178 27.2879C31.6522 28.0855 24.2666 28.0485 20.3377 27.2249C17.3948 26.6076 14.4943 25.0377 12.9997 24.1857C13.4682 23.63 13.7979 22.9549 15.6073 22.2512C16.7907 21.791 19.0049 21.4537 21.3586 21.2775C23.7123 21.102 26.2355 21.0528 28.2202 21.0354Z" fill="#1188EE"/>
<path fill-rule="evenodd" clip-rule="evenodd" d="M17.815 9.61024L15.7349 10.2495L21.3841 28.5369L23.4642 27.8977L17.815 9.61024Z" fill="#1188EE"/>
<path fill-rule="evenodd" clip-rule="evenodd" d="M46.9118 4.43698C46.7773 4.44084 46.6446 4.4695 46.5205 4.52151L37.2639 8.24673C37.0923 8.31613 36.9412 8.42792 36.8251 8.57163C36.709 8.71533 36.6316 8.88621 36.6003 9.06797L33.261 28.2359C33.2367 28.3763 33.2404 28.52 33.272 28.659C33.3035 28.7979 33.3622 28.9294 33.4448 29.0458C33.6115 29.2808 33.8652 29.4401 34.1501 29.4889C34.2912 29.5131 34.4356 29.5095 34.5752 29.4781C34.7148 29.4467 34.8469 29.3883 34.9638 29.3061C35.1999 29.1402 35.3602 28.8877 35.4092 28.6042L38.6422 10.0289L47.3372 6.53228C47.5778 6.44066 47.778 6.26717 47.9022 6.04255C48.0264 5.81794 48.0666 5.55674 48.0156 5.30545C47.9645 5.05415 47.8257 4.82897 47.6236 4.66994C47.4215 4.51091 47.1693 4.42847 46.9118 4.43698Z" fill="#1188EE"/>
<path fill-rule="evenodd" clip-rule="evenodd" d="M15.4456 2.81579C15.2919 2.8215 15.1412 2.8596 15.0033 2.92744C14.8655 2.99528 14.7436 3.09141 14.6458 3.20948L7.63536 11.6082C7.48897 11.7846 7.40242 12.0024 7.38811 12.2307C7.37381 12.459 7.43247 12.6861 7.5557 12.8792C7.67893 13.0723 7.86041 13.2217 8.07416 13.3059C8.2879 13.3902 8.52295 13.4048 8.74563 13.348L26.1016 8.87774C26.3251 8.82003 26.5244 8.69332 26.6707 8.51554C26.817 8.33775 26.9028 8.1182 26.9155 7.88876C26.9283 7.65932 26.8675 7.43175 26.7418 7.23896C26.6162 7.04618 26.4322 6.89811 26.2165 6.81617L15.8709 2.88776C15.7354 2.83593 15.5907 2.81117 15.4456 2.81579ZM15.8242 5.18626L22.2518 7.62895L11.4681 10.4059L15.8242 5.18626Z" fill="#1188EE"/>
<path fill-rule="evenodd" clip-rule="evenodd" d="M14.6162 0.00084492C14.4454 0.00755437 14.2786 0.0540944 14.1293 0.136837C13.9799 0.219579 13.8523 0.336146 13.7566 0.47708C13.661 0.618015 13.6 0.779417 13.5786 0.948157C13.5572 1.1169 13.576 1.28831 13.6335 1.44847L14.5183 4.04752C14.5623 4.18461 14.6332 4.31159 14.727 4.4211C14.8208 4.53062 14.9356 4.62051 15.0647 4.68542C15.1937 4.75032 15.3345 4.78898 15.4787 4.79918C15.6229 4.80938 15.7678 4.7909 15.9048 4.74481C16.0417 4.69872 16.1681 4.62599 16.2765 4.53077C16.385 4.43556 16.4732 4.31979 16.5362 4.19026C16.5992 4.06074 16.6357 3.92002 16.6434 3.77633C16.6512 3.63264 16.6301 3.48878 16.5815 3.35328L15.6967 0.754223C15.6242 0.528304 15.4793 0.332186 15.2841 0.196101C15.0889 0.0600174 14.8543 -0.00850945 14.6162 0.00084492Z" fill="#1188EE"/>
<path fill-rule="evenodd" clip-rule="evenodd" d="M7.64812 33.7734C7.54491 33.7811 7.44604 33.8181 7.36311 33.8797L1.00775 38.3796C0.949374 38.421 0.899766 38.4734 0.86176 38.5339C0.823753 38.5944 0.798092 38.6617 0.786242 38.732C0.774392 38.8024 0.776585 38.8744 0.792695 38.944C0.808806 39.0135 0.838518 39.0793 0.880137 39.1374C0.921755 39.1955 0.974464 39.2448 1.03525 39.2826C1.09604 39.3204 1.16372 39.346 1.23443 39.3578C1.30514 39.3695 1.37749 39.3674 1.44735 39.3514C1.51721 39.3354 1.58321 39.3058 1.64159 39.2644L7.99269 34.7602C8.09056 34.6928 8.16354 34.5953 8.20046 34.4827C8.23738 34.3701 8.23621 34.2485 8.19713 34.1366C8.15804 34.0247 8.0832 33.9289 7.98405 33.8633C7.8849 33.7978 7.76691 33.7658 7.64812 33.7734Z" fill="#1188EE"/>
<path fill-rule="evenodd" clip-rule="evenodd" d="M9.74113 36.1693C9.63804 36.1816 9.54062 36.2231 9.46037 36.2886L2.24147 41.9402C2.18082 41.9825 2.12947 42.0366 2.09056 42.0992C2.05165 42.1619 2.026 42.2319 2.01517 42.3048C2.00434 42.3777 2.00856 42.4519 2.02758 42.5231C2.0466 42.5943 2.08001 42.661 2.12578 42.7189C2.17155 42.7768 2.2287 42.825 2.29376 42.8602C2.35881 42.8954 2.43039 42.9169 2.50413 42.9237C2.57787 42.9304 2.65221 42.9222 2.72261 42.8993C2.79301 42.8765 2.858 42.8395 2.91359 42.7908L10.1325 37.1395C10.2272 37.0676 10.2956 36.9668 10.3272 36.8525C10.3587 36.7382 10.3518 36.6166 10.3074 36.5067C10.263 36.3967 10.1835 36.3042 10.0813 36.2434C9.97898 36.1826 9.8595 36.156 9.74113 36.1693Z" fill="#1188EE"/>
<path fill-rule="evenodd" clip-rule="evenodd" d="M12.6593 38.18C12.5367 38.1863 12.4197 38.2336 12.3275 38.3144L3.5687 45.786C3.51291 45.8319 3.46687 45.8886 3.4333 45.9524C3.39972 46.0163 3.37928 46.0862 3.37317 46.158C3.36706 46.2298 3.37541 46.3019 3.39771 46.3704C3.42002 46.439 3.45584 46.5026 3.50309 46.5572C3.55033 46.6118 3.60804 46.6566 3.67285 46.6887C3.73766 46.7209 3.80826 46.7396 3.88052 46.7443C3.95278 46.749 4.02525 46.7393 4.09369 46.7157C4.16213 46.6922 4.22517 46.6553 4.27911 46.6072L13.0379 39.1367C13.1256 39.0637 13.1879 38.9651 13.2161 38.8549C13.2443 38.7447 13.237 38.6284 13.1951 38.5226C13.1532 38.4168 13.0789 38.3267 12.9828 38.2652C12.8866 38.2037 12.7735 38.1739 12.6593 38.18Z" fill="#1188EE"/>
<path fill-rule="evenodd" clip-rule="evenodd" d="M14.8713 41.1476C14.7481 41.1551 14.6311 41.2039 14.5395 41.2862L5.49142 49.1388C5.43488 49.1847 5.38818 49.2413 5.3541 49.3055C5.32002 49.3697 5.29926 49.4403 5.29305 49.5126C5.28685 49.585 5.29532 49.6577 5.31796 49.7267C5.34061 49.7957 5.37696 49.8595 5.42487 49.9143C5.47278 49.9691 5.53127 50.0139 5.59685 50.0458C5.66244 50.0776 5.73379 50.0959 5.80666 50.0997C5.87953 50.1036 5.95244 50.093 6.02106 50.0683C6.08967 50.0435 6.15259 50.0052 6.20608 49.9558L15.2542 42.1032C15.3422 42.03 15.4048 41.9308 15.4329 41.8201C15.461 41.7094 15.4533 41.5928 15.4109 41.4868C15.3684 41.3807 15.2934 41.2907 15.1965 41.2296C15.0996 41.1685 14.9858 41.1405 14.8713 41.1476Z" fill="#1188EE"/>
<path fill-rule="evenodd" clip-rule="evenodd" d="M17.2918 43.8314C17.1685 43.8349 17.05 43.8799 16.9558 43.9592L7.04413 52.0999C6.93245 52.1914 6.86186 52.3233 6.8479 52.4666C6.83395 52.6099 6.87776 52.7526 6.96971 52.8637C7.06166 52.9749 7.19421 53.0453 7.3382 53.0592C7.48219 53.0731 7.62583 53.0293 7.73752 52.9378L17.6492 44.7973C17.7386 44.7263 17.8032 44.6292 17.834 44.5195C17.8647 44.4099 17.86 44.2933 17.8204 44.1864C17.7809 44.0796 17.7085 43.9878 17.6136 43.9242C17.5188 43.8607 17.4062 43.8277 17.2918 43.8314Z" fill="#1188EE"/>
<path fill-rule="evenodd" clip-rule="evenodd" d="M19.5889 47.1841C19.4847 47.1898 19.3843 47.2251 19.2996 47.286L9.09448 54.4697C9.03609 54.5108 8.98642 54.5629 8.9483 54.6232C8.91017 54.6834 8.88435 54.7506 8.87229 54.8208C8.86024 54.891 8.8622 54.9628 8.87805 55.0322C8.8939 55.1016 8.92334 55.1672 8.96468 55.2253C9.00602 55.2834 9.05846 55.3329 9.119 55.3709C9.17954 55.4088 9.24699 55.4343 9.31751 55.4463C9.38802 55.4582 9.46022 55.4565 9.52998 55.4407C9.59974 55.4249 9.66569 55.3956 9.72406 55.3545L19.9292 48.1707C20.0267 48.1035 20.0994 48.0064 20.1363 47.8942C20.1733 47.7821 20.1724 47.6611 20.1339 47.5495C20.0954 47.4379 20.0214 47.3418 19.923 47.2759C19.8246 47.21 19.7073 47.1776 19.5889 47.1841Z" fill="#1188EE"/>
<path fill-rule="evenodd" clip-rule="evenodd" d="M22.5113 49.0975C22.3881 49.0964 22.2681 49.1368 22.171 49.2123L12.6422 56.3963C12.5272 56.4833 12.4516 56.6121 12.432 56.7546C12.4125 56.897 12.4506 57.0414 12.5381 57.1559C12.6255 57.2704 12.7551 57.3458 12.8983 57.3652C13.0415 57.3846 13.1865 57.3466 13.3016 57.2596L22.8304 50.0761C22.9223 50.0086 22.9906 49.914 23.0256 49.8058C23.0605 49.6975 23.0603 49.5808 23.025 49.4727C22.9897 49.3645 22.9211 49.27 22.8289 49.2028C22.7367 49.1356 22.6256 49.0984 22.5113 49.0975Z" fill="#1188EE"/>
<path fill-rule="evenodd" clip-rule="evenodd" d="M25.4083 51.1083C25.2851 51.1072 25.1651 51.1476 25.068 51.2232L14.765 58.7879C14.7062 58.8296 14.6562 58.8826 14.6182 58.9437C14.5801 59.0049 14.5546 59.0727 14.5432 59.1437C14.5319 59.2148 14.5348 59.2874 14.5519 59.3573C14.569 59.4271 14.5999 59.4931 14.6428 59.5509C14.6858 59.6088 14.7398 59.6575 14.8019 59.6943C14.8639 59.7312 14.9328 59.7556 15.0043 59.7658C15.0759 59.7759 15.1487 59.7715 15.2187 59.7533C15.2886 59.7351 15.3542 59.7033 15.4116 59.6597L25.7146 52.091C25.8076 52.0247 25.8772 51.9308 25.9136 51.8229C25.95 51.7151 25.9514 51.5985 25.9175 51.4898C25.8836 51.3811 25.8162 51.2858 25.7248 51.2173C25.6334 51.1489 25.5227 51.1106 25.4083 51.1083Z" fill="#1188EE"/>
<path fill-rule="evenodd" clip-rule="evenodd" d="M28.3052 53.4069C28.1629 53.401 28.0239 53.4507 27.9181 53.5455L19.5464 60.8269C19.4898 60.8728 19.4431 60.9294 19.4091 60.9936C19.375 61.0578 19.3542 61.1284 19.348 61.2008C19.3418 61.2731 19.3503 61.3458 19.3729 61.4148C19.3956 61.4838 19.4319 61.5476 19.4798 61.6024C19.5277 61.6572 19.5862 61.702 19.6518 61.7339C19.7174 61.7657 19.7887 61.784 19.8616 61.7878C19.9345 61.7917 20.0074 61.7811 20.076 61.7564C20.1446 61.7316 20.2076 61.6933 20.261 61.6439L28.637 54.3628C28.7214 54.2923 28.7823 54.1978 28.8117 54.0921C28.8412 53.9865 28.8376 53.8746 28.8017 53.771C28.7657 53.6673 28.699 53.5768 28.6104 53.5117C28.5218 53.4465 28.4153 53.4106 28.3052 53.4069Z" fill="#1188EE"/>
<path fill-rule="evenodd" clip-rule="evenodd" d="M31.8147 55.9934C31.6734 56.0012 31.5407 56.0633 31.4447 56.1667L25.285 62.5845C25.2355 62.636 25.1968 62.6965 25.1709 62.7629C25.145 62.8292 25.1324 62.8999 25.134 62.9711C25.1356 63.0422 25.1513 63.1123 25.1801 63.1775C25.2089 63.2426 25.2503 63.3016 25.302 63.3508C25.3537 63.4 25.4146 63.4385 25.4812 63.4643C25.5479 63.49 25.619 63.5023 25.6905 63.5008C25.762 63.4992 25.8325 63.4837 25.8979 63.455C25.9634 63.4263 26.0225 63.3852 26.072 63.3338L32.2316 56.916C32.3092 56.8382 32.3613 56.7389 32.381 56.6311C32.4007 56.5232 32.3871 56.412 32.3419 56.312C32.2967 56.212 32.2222 56.1282 32.1281 56.0712C32.034 56.0143 31.9247 55.9873 31.8147 55.9934Z" fill="#1188EE"/>
</g>
</svg>
